<svg width="32" height="40" viewBox="0 0 32 40" fill="none" xmlns="http://www.w3.org/2000/svg">
<path d="M13.8246 0.726726C13.4689 0.73229 13.1298 0.878719 12.8818 1.1339C12.6339 1.38908 12.4972 1.73219 12.5019 2.08797C12.5019 3.87964 11.886 4.17533 10.7662 5.07117C9.6464 5.967 8.02271 7.46297 8.02271 10.1505C8.02019 10.3285 8.05308 10.5053 8.11948 10.6706C8.18588 10.8358 8.28446 10.9862 8.40949 11.113C8.53452 11.2398 8.6835 11.3405 8.84779 11.4092C9.01207 11.478 9.18837 11.5134 9.36646 11.5134C9.54454 11.5134 9.72084 11.478 9.88512 11.4092C10.0494 11.3405 10.1984 11.2398 10.3234 11.113C10.4484 10.9862 10.547 10.8358 10.6134 10.6706C10.6798 10.5053 10.7127 10.3285 10.7102 10.1505C10.7102 8.35881 11.3243 8.06486 12.4441 7.16903C13.5639 6.27319 15.1894 4.77547 15.1894 2.08797C15.1917 1.90827 15.158 1.72992 15.0902 1.56347C15.0224 1.39703 14.9219 1.24588 14.7947 1.11896C14.6674 0.992039 14.516 0.891932 14.3494 0.82456C14.1828 0.757189 14.0043 0.723921 13.8246 0.726726ZM19.1996 2.51839C18.8439 2.52396 18.5048 2.67039 18.2568 2.92557C18.0089 3.18075 17.8722 3.52385 17.8769 3.87964C17.8769 4.55151 17.7452 4.8326 17.5619 5.09216C17.3787 5.35173 17.0703 5.60482 16.6224 5.94076C16.1744 6.27669 15.587 6.69548 15.0984 7.38774C14.6097 8.08 14.2935 9.03068 14.2935 10.1505C14.291 10.3285 14.3239 10.5053 14.3903 10.6706C14.4567 10.8358 14.5553 10.9862 14.6803 11.113C14.8054 11.2398 14.9543 11.3405 15.1186 11.4092C15.2829 11.478 15.4592 11.5134 15.6373 11.5134C15.8154 11.5134 15.9917 11.478 16.156 11.4092C16.3202 11.3405 16.4692 11.2398 16.5943 11.113C16.7193 10.9862 16.8179 10.8358 16.8843 10.6706C16.9507 10.5053 16.9836 10.3285 16.981 10.1505C16.981 9.4786 17.111 9.19751 17.2942 8.93795C17.4775 8.67839 17.7859 8.42704 18.2338 8.09111C18.6817 7.75517 19.2691 7.33464 19.7578 6.64238C20.2464 5.95012 20.5644 4.99943 20.5644 3.87964C20.5667 3.69993 20.533 3.52158 20.4652 3.35514C20.3974 3.1887 20.2969 3.03754 20.1696 2.91062C20.0424 2.78371 19.891 2.6836 19.7244 2.61623C19.5578 2.54886 19.3793 2.51559 19.1996 2.51839ZM4.09294 13.2859C3.22219 13.2859 2.38511 13.6524 1.79386 14.2902C1.20261 14.9289 0.901726 15.7929 0.968018 16.661L2.22778 33.0607C2.49564 36.5392 5.43891 39.2651 8.92729 39.2651H15.9942C19.4835 39.2651 22.4268 36.5392 22.6937 33.0607L22.699 32.9942H24.5956C28.2905 32.9942 31.3144 29.9703 31.3144 26.2755V21.7963C31.3144 20.0808 29.8944 18.6609 28.179 18.6609H23.7995L23.9535 16.6628C24.0198 15.7956 23.7197 14.9316 23.1294 14.292C22.5372 13.6532 21.6993 13.2859 20.8286 13.2859H4.09294ZM23.5931 21.3484H28.179C28.4433 21.3484 28.6269 21.532 28.6269 21.7963V26.2755C28.6269 28.5182 26.8383 30.3067 24.5956 30.3067H22.9054L23.5931 21.3484Z" fill="#1A193E"/>
<path d="M13.8245 0.726726C13.4687 0.73229 13.1297 0.878719 12.8817 1.1339C12.6338 1.38908 12.4971 1.73219 12.5018 2.08797C12.5018 3.87964 11.8859 4.17533 10.7661 5.07117C9.64629 5.967 8.0226 7.46297 8.0226 10.1505C8.02008 10.3285 8.05297 10.5053 8.11937 10.6706C8.18577 10.8358 8.28435 10.9862 8.40938 11.113C8.53441 11.2398 8.68339 11.3405 8.84768 11.4092C9.01196 11.478 9.18826 11.5134 9.36634 11.5134C9.54443 11.5134 9.72073 11.478 9.88501 11.4092C10.0493 11.3405 10.1983 11.2398 10.3233 11.113C10.4483 10.9862 10.5469 10.8358 10.6133 10.6706C10.6797 10.5053 10.7126 10.3285 10.7101 10.1505C10.7101 8.35881 11.3242 8.06486 12.444 7.16903C13.5638 6.27319 15.1893 4.77547 15.1893 2.08797C15.1916 1.90827 15.1579 1.72992 15.0901 1.56347C15.0223 1.39703 14.9218 1.24588 14.7945 1.11896C14.6673 0.992039 14.5159 0.891932 14.3493 0.82456C14.1827 0.757189 14.0042 0.723921 13.8245 0.726726ZM19.1995 2.51839C18.8437 2.52396 18.5047 2.67039 18.2567 2.92557C18.0088 3.18075 17.8721 3.52385 17.8768 3.87964C17.8768 4.55151 17.745 4.8326 17.5618 5.09216C17.3786 5.35173 17.0702 5.60482 16.6222 5.94076C16.1743 6.27669 15.5869 6.69548 15.0983 7.38774C14.6096 8.08 14.2934 9.03068 14.2934 10.1505C14.2909 10.3285 14.3238 10.5053 14.3902 10.6706C14.4566 10.8358 14.5552 10.9862 14.6802 11.113C14.8052 11.2398 14.9542 11.3405 15.1185 11.4092C15.2828 11.478 15.4591 11.5134 15.6372 11.5134C15.8153 11.5134 15.9916 11.478 16.1558 11.4092C16.3201 11.3405 16.4691 11.2398 16.5941 11.113C16.7192 10.9862 16.8177 10.8358 16.8841 10.6706C16.9505 10.5053 16.9834 10.3285 16.9809 10.1505C16.9809 9.4786 17.1109 9.19751 17.2941 8.93795C17.4773 8.67839 17.7858 8.42704 18.2337 8.09111C18.6816 7.75517 19.269 7.33464 19.7577 6.64238C20.2463 5.95012 20.5643 4.99943 20.5643 3.87964C20.5666 3.69993 20.5329 3.52158 20.4651 3.35514C20.3973 3.1887 20.2968 3.03754 20.1695 2.91062C20.0423 2.78371 19.8909 2.6836 19.7243 2.61623C19.5577 2.54886 19.3792 2.51559 19.1995 2.51839Z" fill="#2949F2"/>
</svg>
