<svg width="39" height="26" viewBox="0 0 39 26" fill="none" xmlns="http://www.w3.org/2000/svg">
<path d="M38.5403 0.379883H26.2403C26.2403 0.379883 25.4203 6.93988 27.0603 13.4999C27.7196 14.5987 29.3481 15.1907 31.1603 15.3408V23.3399H30.8873L27.8803 25.7999H36.9003L33.9614 23.3399H33.6203V15.2809C35.3587 15.0554 36.952 14.4494 37.7203 13.4999C39.3603 7.75988 38.5403 0.379883 38.5403 0.379883ZM37.7203 5.29988H27.0603V1.19988H37.7203V5.29988ZM17.6303 23.3399H13.1203V16.3699L22.1403 2.83988H0.820312L9.84031 16.3699V23.3399H5.33031C4.65053 23.3399 4.10031 23.8909 4.10031 24.5699C4.10031 25.2488 4.65053 25.7999 5.33031 25.7999H17.6303C18.3101 25.7999 18.8603 25.2488 18.8603 24.5699C18.8603 23.8909 18.3101 23.3399 17.6303 23.3399Z" fill="#1A193E"/>
<path d="M38.5402 0.379883H26.2402C26.2402 0.379883 25.4202 6.93988 27.0602 13.4999C27.7194 14.5987 29.348 15.1907 31.1602 15.3408V23.3399H30.8871L27.8802 25.7999H36.9002L33.9613 23.3399H33.6202V15.2809C35.3586 15.0554 36.9518 14.4494 37.7202 13.4999C39.3602 7.75988 38.5402 0.379883 38.5402 0.379883ZM37.7202 5.29988H27.0602V1.19988H37.7202V5.29988Z" fill="#2949F2"/>
</svg>
