<svg width="40" height="32" viewBox="0 0 40 32" fill="none" xmlns="http://www.w3.org/2000/svg">
<path d="M10.928 8.80762C11.6108 8.80762 12.1644 9.36121 12.1644 10.044C12.1644 10.7268 11.6108 11.2804 10.928 11.2804C10.2452 11.2804 9.69156 10.7268 9.69156 10.044C9.69156 9.36121 10.2452 8.80762 10.928 8.80762ZM8.92016 15.3596V13.4417C8.92016 13.3465 8.97828 13.2884 9.07344 13.2884C9.16859 13.2884 9.22672 13.3465 9.22672 13.4417V15.3596H12.6295V13.4417C12.6295 13.3465 12.6877 13.2884 12.7828 13.2884C12.878 13.2884 12.9361 13.3465 12.9361 13.4417V15.3596H14.0192V13.1298C14.0192 12.2792 13.3217 11.587 12.4764 11.587H9.38516C8.53453 11.587 7.84234 12.2845 7.84234 13.1298V15.3596H8.92016ZM10.9333 24.6873C8.99438 24.6873 7.42547 26.2562 7.42547 28.1951C7.42547 30.134 8.99438 31.7029 10.9333 31.7029C12.8722 31.7029 14.4411 30.134 14.4411 28.1951C14.4411 26.2562 12.8722 24.6873 10.9333 24.6873ZM10.9333 29.5387C10.1967 29.5387 9.58969 28.9317 9.58969 28.1951C9.58969 27.4586 10.1969 26.8515 10.9333 26.8515C11.6698 26.8515 12.2769 27.4587 12.2769 28.1951C12.2769 28.9315 11.6698 29.5387 10.9333 29.5387ZM33.0163 24.5379C31.0773 24.5379 29.5084 26.1068 29.5084 28.0457C29.5084 29.9846 31.0773 31.5536 33.0163 31.5536C34.9552 31.5536 36.5241 29.9846 36.5241 28.0457C36.5241 26.1068 34.9552 24.5379 33.0163 24.5379ZM33.0163 29.3893C32.2797 29.3893 31.6727 28.7823 31.6727 28.0457C31.6727 27.3092 32.2798 26.7021 33.0163 26.7021C33.7528 26.7021 34.3598 27.3093 34.3598 28.0457C34.3598 28.7821 33.7527 29.3893 33.0163 29.3893ZM39.3839 24.9211H38.625V21.5821C38.625 20.4597 37.7873 19.6092 36.652 19.6092H33.0095C32.933 19.6092 32.8427 19.5686 32.7917 19.5175L27.1155 13.9923C26.8603 13.7371 26.55 13.5512 26.1802 13.5384H22.0823V27.5011H28.1531C28.2934 27.5011 28.4311 27.3251 28.4567 27.1975C28.8394 25.0034 30.7075 23.3387 33.0163 23.3387C35.325 23.3387 37.2384 25.0096 37.6211 27.2037C37.6466 27.344 37.8778 27.5011 38.0181 27.5011H38.3217C39.0488 27.5011 39.6877 26.8465 39.6877 26.1323V25.1884C39.6875 25.0481 39.537 24.9211 39.3839 24.9211ZM30.1261 19.6092H23.9036C23.7505 19.6092 23.6 19.4587 23.6 19.3056V15.3873C23.6 15.2342 23.7505 15.0561 23.9036 15.0561H25.8766C25.9531 15.0561 26.1078 15.1403 26.1716 15.1912L30.2778 19.1537C30.4309 19.3453 30.3684 19.6092 30.1261 19.6092ZM0.3125 5.27059C0.3125 6.52449 1.17141 7.56371 2.33063 7.86418V15.8426H1.44203V26.202C1.44203 26.8822 1.97609 27.5011 2.65625 27.5011H5.99516C6.13547 27.5011 6.27313 27.325 6.29875 27.1975C6.68141 25.0034 8.62469 23.4881 10.9334 23.4881C13.2422 23.4881 15.1556 25.0096 15.5383 27.2037C15.5638 27.344 15.7198 27.5009 15.8602 27.5011H20.8684V15.8426H19.7995V7.86418C20.9591 7.56355 21.8544 6.5159 21.8544 5.26184V4.6159H0.3125V5.27059ZM5.68875 5.27059C5.68875 5.82434 6.26594 7.96074 8.39937 7.96074C10.2523 7.96074 11.0652 6.28402 11.0652 5.27059C11.0652 6.21527 11.6983 7.95871 13.7533 7.95871C15.61 7.95871 16.4328 6.16371 16.4328 5.27059C16.4328 6.52449 17.2917 7.56371 18.4509 7.86418V15.8426H3.67063V7.86418C4.83 7.56371 5.68875 6.52449 5.68875 5.27059ZM19.1473 1.33418V0.362305H3.03328V1.33418H3.00516L0.3125 4.02684H21.8541L19.1614 1.33418H19.1473Z" fill="#1A193E"/>
<path d="M10.928 8.80762C11.6108 8.80762 12.1644 9.36121 12.1644 10.044C12.1644 10.7268 11.6108 11.2804 10.928 11.2804C10.2452 11.2804 9.69156 10.7268 9.69156 10.044C9.69156 9.36121 10.2452 8.80762 10.928 8.80762ZM8.92016 15.3596V13.4417C8.92016 13.3465 8.97828 13.2884 9.07344 13.2884C9.16859 13.2884 9.22672 13.3465 9.22672 13.4417V15.3596H12.6295V13.4417C12.6295 13.3465 12.6877 13.2884 12.7828 13.2884C12.878 13.2884 12.9361 13.3465 12.9361 13.4417V15.3596H14.0192V13.1298C14.0192 12.2792 13.3217 11.587 12.4764 11.587H9.38516C8.53453 11.587 7.84234 12.2845 7.84234 13.1298V15.3596H8.92016ZM19.1473 1.33418V0.362305H3.03328V1.33418H3.00516L0.3125 4.02684H21.8541L19.1614 1.33418H19.1473Z" fill="#2949F2"/>
</svg>
