<svg width="39" height="39" viewBox="0 0 39 39" fill="none" xmlns="http://www.w3.org/2000/svg">
<path d="M35.6201 20.1H38.4C37.9296 30.2859 29.5188 38.4 19.2108 38.4C8.601 38.4 0 29.8038 0 19.2C0 8.5962 8.601 0 19.2108 0C22.3892 0 25.3868 0.77205 28.0274 2.1378L26.6345 4.5489C24.4035 3.41505 21.8807 2.775 19.2108 2.775C10.149 2.775 2.7765 10.1433 2.7765 19.2C2.7765 28.2569 10.1489 35.625 19.2108 35.625C27.9707 35.625 35.151 28.7399 35.6201 20.1ZM17.6511 20.1H33.8156C33.3488 27.7466 26.9772 33.825 19.2108 33.825C12.3266 33.825 6.5385 29.0489 4.98705 22.6382C5.316 23.1795 5.90985 23.5425 6.58995 23.5425C7.626 23.5425 8.466 22.7031 8.466 21.6675C8.466 20.6319 7.626 19.7925 6.58995 19.7925C5.6544 19.7925 4.881 20.4777 4.73925 21.3728C4.63305 20.6636 4.57755 19.9382 4.57755 19.2C4.57755 11.1357 11.142 4.575 19.2108 4.575C21.5529 4.575 23.7677 5.12865 25.7325 6.11055L17.6511 20.1ZM18.6855 9.6C18.6855 10.2213 19.1895 10.725 19.8111 10.725C20.4329 10.725 20.9367 10.2213 20.9367 9.6C20.9367 8.9787 20.4327 8.475 19.8111 8.475C19.1895 8.475 18.6855 8.9787 18.6855 9.6ZM12.1569 12.9C13.193 12.9 14.033 12.0606 14.033 11.025C14.033 9.9894 13.193 9.15 12.1569 9.15C11.1208 9.15 10.2809 9.9894 10.2809 11.025C10.2809 12.0606 11.1207 12.9 12.1569 12.9ZM12.1569 19.125C12.7785 19.125 13.2825 18.6213 13.2825 18C13.2825 17.3787 12.7785 16.875 12.1569 16.875C11.5353 16.875 11.0313 17.3787 11.0313 18C11.0313 18.6213 11.5352 19.125 12.1569 19.125ZM16.5 29.2125C16.5 28.1769 15.66 27.3375 14.624 27.3375C13.5879 27.3375 12.7479 28.1769 12.7479 29.2125C12.7479 30.2481 13.5879 31.0875 14.624 31.0875C15.66 31.0875 16.5 30.2481 16.5 29.2125ZM26.1852 24.2813C26.1852 25.3169 27.0252 26.1563 28.0613 26.1563C29.0973 26.1563 29.9373 25.3169 29.9373 24.2813C29.9373 23.2457 29.0973 22.4062 28.0613 22.4062C27.0252 22.4062 26.1852 23.2457 26.1852 24.2813ZM22.8879 30.1407C22.8879 30.762 23.3919 31.2657 24.0135 31.2657C24.6351 31.2657 25.1391 30.762 25.1391 30.1407C25.1391 29.5194 24.6351 29.0157 24.0135 29.0157C23.3919 29.0157 22.8879 29.5194 22.8879 30.1407ZM17.5599 24C17.5599 24.6213 18.0639 25.125 18.6855 25.125C19.3071 25.125 19.8111 24.6213 19.8111 24C19.8111 23.3787 19.3071 22.875 18.6855 22.875C18.0639 22.875 17.5599 23.3787 17.5599 24ZM35.6201 18.3H38.4C38.104 11.891 34.6647 6.3021 29.5866 3.03885L28.1927 5.45205C32.441 8.2338 35.3283 12.9273 35.6201 18.3ZM33.8156 18.3H20.7706L24.9261 11.1065C25.2378 11.337 25.6221 11.475 26.0397 11.475C27.0758 11.475 27.9158 10.6356 27.9158 9.6C27.9158 8.83095 27.452 8.1708 26.7891 7.8816L27.2908 7.01295C31.0026 9.47925 33.5282 13.5921 33.8156 18.3ZM30.092 13.8657C29.4704 13.8657 28.9664 14.3694 28.9664 14.9907C28.9664 15.612 29.4704 16.1157 30.092 16.1157C30.7136 16.1157 31.2176 15.612 31.2176 14.9907C31.2176 14.3694 30.7137 13.8657 30.092 13.8657Z" fill="#1A193E"/>
<path d="M35.6199 18.3002H38.3999C38.1039 11.8912 34.6646 6.30231 29.5865 3.03906L28.1925 5.45226C32.4408 8.23401 35.3282 12.9275 35.6199 18.3002ZM33.8154 18.3002H20.7705L24.926 11.1067C25.2377 11.3372 25.622 11.4752 26.0396 11.4752C27.0756 11.4752 27.9156 10.6358 27.9156 9.60021C27.9156 8.83116 27.4518 8.17101 26.789 7.88181L27.2907 7.01316C31.0025 9.47946 33.528 13.5923 33.8154 18.3002ZM30.0918 13.8659C29.4702 13.8659 28.9662 14.3696 28.9662 14.9909C28.9662 15.6122 29.4702 16.1159 30.0918 16.1159C30.7134 16.1159 31.2174 15.6122 31.2174 14.9909C31.2174 14.3696 30.7136 13.8659 30.0918 13.8659Z" fill="#2949F2"/>
</svg>
