<svg width="42" height="42" viewBox="0 0 42 42" fill="none" xmlns="http://www.w3.org/2000/svg">
<path d="M39.338 7.87494H31.8682L32.5999 4.94971L35.7434 3.8792C36.4119 3.65198 36.8098 2.94158 36.617 2.26237C36.5679 2.09151 36.4847 1.93239 36.3723 1.79467C36.2599 1.65695 36.1207 1.54349 35.9632 1.46118C35.8056 1.37887 35.633 1.32943 35.4557 1.31585C35.2785 1.30227 35.1003 1.32483 34.9321 1.38217L31.0766 2.69467C30.869 2.76547 30.6824 2.88718 30.5339 3.04868C30.3855 3.21019 30.2799 3.40632 30.2268 3.61916L29.1628 7.87494H18.4118C17.7055 7.87494 17.0993 8.41799 17.064 9.12428C17.0555 9.30174 17.083 9.47909 17.1451 9.64559C17.2071 9.81208 17.3022 9.96425 17.4248 10.0929C17.5474 10.2215 17.6948 10.3239 17.8581 10.3939C18.0214 10.4638 18.1972 10.4999 18.3749 10.4999H18.6005L18.6825 11.2103C18.7018 11.3762 18.7814 11.5292 18.9062 11.6403C19.031 11.7513 19.1922 11.8126 19.3593 11.8124C22.5585 11.8124 25.4017 12.7066 27.5722 14.3981C28.7795 15.3283 29.7582 16.5222 30.4335 17.8885C30.8115 18.657 31.0904 19.4705 31.2636 20.3092C31.2981 20.4727 31.3949 20.6163 31.5335 20.7096C32.6494 21.4667 33.4726 22.583 33.8663 23.8728C34.26 25.1626 34.2004 26.5483 33.6975 27.7995C33.639 27.9443 33.6346 28.1054 33.6852 28.2531C33.9758 29.0859 34.1244 29.9616 34.1249 30.8437C34.1249 32.6763 33.5014 34.4227 32.3694 35.7615C31.7276 36.5255 30.9202 37.1334 30.0086 37.5391C29.8508 37.6086 29.7268 37.7374 29.6632 37.8976C29.3225 38.7851 28.8414 39.6121 28.2383 40.347C28.2132 40.3768 28.1971 40.4132 28.1919 40.4518C28.1868 40.4905 28.1927 40.5298 28.2091 40.5651C28.2254 40.6005 28.2515 40.6305 28.2843 40.6516C28.3171 40.6727 28.3552 40.684 28.3942 40.6842H32.4309C33.4193 40.6801 34.3703 40.3062 35.0968 39.6361C35.8232 38.9659 36.2725 38.0481 36.3561 37.0633L39.1616 10.4999H39.3749C39.5527 10.5002 39.7287 10.4642 39.8922 10.3944C40.0557 10.3245 40.2033 10.2221 40.326 10.0935C40.4488 9.96482 40.5441 9.81257 40.6062 9.64597C40.6683 9.47937 40.6959 9.30188 40.6874 9.12428C40.6529 8.41799 40.0443 7.87494 39.338 7.87494Z" fill="#1A193E"/>
<path d="M8.91598 26.25C9.17484 26.2488 9.43138 26.2989 9.67074 26.3975C9.91011 26.496 10.1276 26.6411 10.3105 26.8242L11.5828 28.0965C11.6133 28.127 11.6495 28.1512 11.6893 28.1677C11.7291 28.1843 11.7718 28.1928 11.815 28.1928C11.8581 28.1928 11.9008 28.1843 11.9406 28.1677C11.9804 28.1512 12.0166 28.127 12.0471 28.0965L13.317 26.8242C13.4999 26.6411 13.7174 26.496 13.9567 26.3975C14.1961 26.2989 14.4526 26.2488 14.7115 26.25H30.8372C30.9234 26.2509 31.0089 26.2347 31.0888 26.2026C31.1688 26.1704 31.2416 26.1228 31.3032 26.0624C31.3647 26.0021 31.4138 25.9302 31.4475 25.851C31.4813 25.7717 31.4991 25.6865 31.5 25.6003V25.5938C31.4991 24.8376 31.2375 24.1049 30.7593 23.5191C30.2811 22.9334 29.6157 22.5304 28.875 22.3781C28.8077 19.9426 27.8086 17.9041 25.9621 16.4719C24.2542 15.1397 21.9721 14.4375 19.3594 14.4375H13.4531C7.85695 14.4375 4.06629 17.6179 3.9375 22.3781C3.19685 22.5304 2.53135 22.9334 2.05318 23.5191C1.57502 24.1049 1.31342 24.8376 1.3125 25.5938C1.3125 25.7678 1.38164 25.9347 1.50471 26.0578C1.62778 26.1809 1.7947 26.25 1.96875 26.25H8.91598Z" fill="#2949F2"/>
<path d="M15.2529 28.875C15.1667 28.8749 15.0813 28.8919 15.0016 28.9248C14.922 28.9577 14.8496 29.006 14.7886 29.067L12.9724 30.884C12.6648 31.1915 12.2475 31.3643 11.8125 31.3643C11.3775 31.3643 10.9602 31.1915 10.6526 30.884L8.83641 29.067C8.77542 29.006 8.70302 28.9577 8.62335 28.9248C8.54369 28.8919 8.45832 28.8749 8.37211 28.875H2.67914C2.37083 28.8736 2.07197 28.9813 1.83538 29.179C1.5988 29.3767 1.43974 29.6517 1.38633 29.9554C1.33705 30.2489 1.31235 30.5461 1.3125 30.8438C1.3125 33.3531 3.04582 35.3973 5.1893 35.4375C5.38863 36.6778 5.87098 37.7984 6.59695 38.6753C7.67074 39.9722 9.2318 40.6875 10.9922 40.6875H21.8203C23.5807 40.6875 25.1418 39.9722 26.2155 38.6736C26.9415 37.7967 27.4239 36.6762 27.6232 35.4359C29.7667 35.3973 31.5 33.3531 31.5 30.8421C31.5001 30.5445 31.4755 30.2473 31.4262 29.9537C31.3724 29.6504 31.2132 29.3758 30.9767 29.1784C30.7401 28.981 30.4414 28.8736 30.1334 28.875H15.2529Z" fill="#2949F2"/>
</svg>
